<?xml version="1.0" encoding="utf-8"?>
<!-- Generator: Adobe Illustrator 19.2.1, SVG Export Plug-In . SVG Version: 6.00 Build 0)  -->
<svg version="1.1" id="Layer_1" xmlns="http://www.w3.org/2000/svg" xmlns:xlink="http://www.w3.org/1999/xlink" x="0px" y="0px"
	 viewBox="0 0 1224 792" style="enable-background:new 0 0 1224 792;" xml:space="preserve">
<style type="text/css">
	.st0{fill:#FFFFFF;}
	.st1{fill:none;stroke:#000000;stroke-width:20;stroke-miterlimit:10;}
</style>
<polygon class="st0" points="578,427 596,401.8 614.9,427 603.3,421.1 596.2,429.3 588.4,420.4 "/>
<path class="st0" d="M729.2,454.7l25.1-0.2L636.5,301.7l-41.4,57l-43.9-57L440.1,454.7l24.7,0l18.8-25.9l61.2-0.8l-19.4,26.7l24.7,0
	l45.4-62.6l48.2,62.6l25.1-0.2l-21.4-27.8l59.5-0.8L729.2,454.7z M559.5,407.8l-61.2,0.8l53.4-73.5l31.2,40.5L559.5,407.8z
	 M632.2,406.9l-24.4-31.6l29.2-40.1l54.7,71L632.2,406.9z"/>
<path class="st1" d="M630.3,416.9"/>
</svg>
