<?xml version="1.0" encoding="utf-8"?>
<!-- Generator: Adobe Illustrator 19.2.1, SVG Export Plug-In . SVG Version: 6.00 Build 0)  -->
<svg version="1.1" id="Layer_1" xmlns="http://www.w3.org/2000/svg" xmlns:xlink="http://www.w3.org/1999/xlink" x="0px" y="0px"
	 viewBox="0 0 312 189" style="enable-background:new 0 0 312 189;" xml:space="preserve">
<style type="text/css">
	.st0{fill:#FFFFFF;}
	.st1{fill:none;stroke:#010101;stroke-width:20;stroke-miterlimit:10;}
</style>
<polygon class="st0" points="137,125 155,99.8 173.9,125 162.3,119.1 155.2,127.3 147.4,118.4 "/>
<path class="st0" d="M288.2,152.7l25.1-0.2L195.5-0.3l-41.4,57l-43.9-57l-111.1,153h24.7l18.8-25.9l61.2-0.8l-19.4,26.7h24.7
	l45.4-62.6l48.2,62.6l25.1-0.2l-21.4-27.8l59.5-0.8L288.2,152.7z M118.5,105.8l-61.2,0.8l53.4-73.5l31.2,40.5L118.5,105.8z
	 M191.2,104.9l-24.4-31.6L196,33.2l54.7,71L191.2,104.9z"/>
<path class="st1" d="M189.3,114.9"/>
<g>
	<path class="st0" d="M9,183.7v-1.3c-1,1.1-2.3,1.6-3.8,1.6c-1.9,0-3.9-1.3-3.9-3.7c0-2.4,2-3.7,3.9-3.7c1.6,0,2.8,0.5,3.8,1.6v-2.3
		c0-1.7-1.4-2.6-3-2.6c-1.4,0-2.5,0.5-3.5,1.7l-0.7-0.8c1.2-1.3,2.5-1.9,4.3-1.9c2.3,0,4.1,1.1,4.1,3.6v7.9H9V183.7z M9,181.5V179
		c-0.8-1-2-1.6-3.4-1.6c-1.8,0-3.1,1.2-3.1,2.8c0,1.6,1.2,2.8,3.1,2.8C7,183,8.2,182.5,9,181.5z"/>
	<path class="st0" d="M25.6,183.7v-15.5h1.2v15.5H25.6z"/>
	<path class="st0" d="M41.6,178.1c0-3.3,2.3-5.9,5.4-5.9c3.4,0,5.3,2.7,5.3,6v0.3h-9.4c0.1,2.4,1.7,4.5,4.4,4.5
		c1.4,0,2.7-0.5,3.7-1.6l0.6,0.8c-1.1,1.2-2.5,1.8-4.4,1.8C44,184,41.6,181.5,41.6,178.1z M47,173.2c-2.7,0-4,2.3-4.1,4.3h8.2
		C51.1,175.6,49.8,173.2,47,173.2z"/>
	<path class="st0" d="M74.6,183.7l-3.7-5l-3.7,5h-1.4l4.4-5.8l-4.2-5.5h1.4l3.5,4.6l3.5-4.6h1.4l-4.2,5.5l4.4,5.8H74.6z"/>
	<path class="st0" d="M97.3,183.7v-1.8c-0.8,1.2-2.2,2.1-3.9,2.1c-3,0-5-2.3-5-5.9s2-5.9,5-5.9c1.6,0,3,0.8,3.9,2.1v-6.1h1.2v15.5
		L97.3,183.7L97.3,183.7z M97.3,180.9v-5.6c-0.7-1.1-2.1-2-3.7-2c-2.5,0-3.9,2.1-3.9,4.8c0,2.7,1.4,4.8,3.9,4.8
		C95.2,182.9,96.7,182,97.3,180.9z"/>
	<path class="st0" d="M113.3,178.1c0-3.3,2.1-5.9,5.4-5.9c3.3,0,5.4,2.6,5.4,5.9s-2.1,5.9-5.4,5.9
		C115.4,184,113.3,181.3,113.3,178.1z M122.8,178.1c0-2.5-1.5-4.8-4.1-4.8s-4.1,2.3-4.1,4.8s1.5,4.8,4.1,4.8
		C121.4,182.9,122.8,180.6,122.8,178.1z"/>
	<path class="st0" d="M138.3,178.1c0-3.3,2.3-5.9,5.4-5.9c3.4,0,5.3,2.7,5.3,6v0.3h-9.4c0.1,2.4,1.7,4.5,4.4,4.5
		c1.4,0,2.7-0.5,3.7-1.6l0.6,0.8c-1.1,1.2-2.5,1.8-4.4,1.8C140.6,184,138.3,181.5,138.3,178.1z M143.6,173.2c-2.7,0-4,2.3-4.1,4.3
		h8.2C147.7,175.6,146.5,173.2,143.6,173.2z"/>
	<path class="st0" d="M162.8,182.2l0.7-0.9c0.7,0.9,2,1.7,3.6,1.7c1.9,0,3-1,3-2.3c0-3.1-7.1-1.3-7.1-5.4c0-1.7,1.5-3.1,4-3.1
		c1.9,0,3.2,0.7,4,1.7l-0.7,0.9c-0.7-0.9-1.9-1.5-3.4-1.5c-1.7,0-2.8,0.9-2.8,2c0,2.8,7.1,1.1,7.1,5.4c0,1.8-1.4,3.3-4.2,3.3
		C165.3,184,163.9,183.4,162.8,182.2z"/>
	<path class="st0" d="M187.3,181.9v6.1h-1.2v-15.5h1.2v1.8c0.8-1.1,2.2-2,3.9-2c3,0,5,2.3,5,5.9s-2,5.9-5,5.9
		C189.6,184,188.2,183.2,187.3,181.9z M194.9,178.1c0-2.7-1.4-4.8-3.9-4.8c-1.6,0-3.1,0.9-3.7,2v5.6c0.7,1.1,2.1,2,3.7,2
		C193.5,182.9,194.9,180.8,194.9,178.1z"/>
	<path class="st0" d="M218.5,183.7V176c0-2.2-1.1-2.8-2.7-2.8c-1.4,0-2.9,0.9-3.7,1.9v8.5h-1.2v-15.5h1.2v6c0.8-1,2.4-2,4.1-2
		c2.3,0,3.5,1.1,3.5,3.6v7.9h-1.2V183.7z"/>
	<path class="st0" d="M234.5,178.1c0-3.3,2.1-5.9,5.4-5.9c3.3,0,5.4,2.6,5.4,5.9s-2.1,5.9-5.4,5.9S234.5,181.3,234.5,178.1z
		 M244,178.1c0-2.5-1.5-4.8-4.1-4.8s-4.1,2.3-4.1,4.8s1.5,4.8,4.1,4.8C242.6,182.9,244,180.6,244,178.1z"/>
	<path class="st0" d="M260.3,181.5v-8h-1.9v-1.1h1.9v-3.1h1.2v3.1h2.3v1.1h-2.3v7.8c0,0.9,0.4,1.5,1.2,1.5c0.5,0,1-0.3,1.3-0.5
		l0.5,0.9c-0.4,0.4-1,0.7-1.9,0.7C261,184,260.3,183.1,260.3,181.5z"/>
	<path class="st0" d="M277.5,178.1c0-3.3,2.1-5.9,5.4-5.9c3.3,0,5.4,2.6,5.4,5.9s-2.1,5.9-5.4,5.9S277.5,181.3,277.5,178.1z
		 M287,178.1c0-2.5-1.5-4.8-4.1-4.8s-4.1,2.3-4.1,4.8s1.5,4.8,4.1,4.8S287,180.6,287,178.1z"/>
	<path class="st0" d="M302.1,182.2l0.7-0.9c0.7,0.9,2,1.7,3.6,1.7c1.9,0,3-1,3-2.3c0-3.1-7.1-1.3-7.1-5.4c0-1.7,1.5-3.1,4-3.1
		c1.9,0,3.2,0.7,4,1.7l-0.7,0.9c-0.7-0.9-1.9-1.5-3.4-1.5c-1.7,0-2.8,0.9-2.8,2c0,2.8,7.1,1.1,7.1,5.4c0,1.8-1.4,3.3-4.2,3.3
		C304.6,184,303.2,183.4,302.1,182.2z"/>
</g>
</svg>
